# xmcd
#
# Track frame offsets:
# 150
# 18644
# 33978
# 48356
# 76125
# 81589
# 103238
# 126177
# 151758
# 169426
# 187795
# 206338
# 223277
#
# Disc length: 3261 seconds
#
# Revision: 0
# Processed by: cddbd v1.4b42PL0 Copyright (c) Steve Scherf et al.
# Submitted via: Audion 2.5.0 (http://www.panic.com/audion/)
#
DISCID=ae0cbb0d
DTITLE=varios2 - varios2
DYEAR=1900
DGENRE=
TTITLE0=a
TTITLE1=b
TTITLE2=come onover
TTITLE3=onemoretime
TTITLE4=e
TTITLE5=f
TTITLE6=lady
TTITLE7=feelssogood
TTITLE8=holler
TTITLE9=j
TTITLE10=l
TTITLE11=shapeofmy
TTITLE12=n
EXTD=
EXTT0=
EXTT1=
EXTT2=
EXTT3=
EXTT4=
EXTT5=
EXTT6=
EXTT7=
EXTT8=
EXTT9=
EXTT10=
EXTT11=
EXTT12=
PLAYORDER=
